Coordinates
version=1
nRows=24
nColumns=24
inDegrees=yes

Units are S.I. units (second, meters, Newtons, ...)
If the header above contains a line with 'inDegrees', this indicates whether rotational values are in degrees (yes) or radians (no).

endheader
time	pelvis_tilt	pelvis_list	pelvis_rotation	pelvis_tx	pelvis_ty	pelvis_tz	hip_flexion_r	hip_adduction_r	hip_rotation_r	knee_angle_r	ankle_angle_r	subtalar_angle_r	mtp_angle_r	hip_flexion_l	hip_adduction_l	hip_rotation_l	knee_angle_l	ankle_angle_l	subtalar_angle_l	mtp_angle_l	lumbar_extension	lumbar_bending	lumbar_rotation
      1.50666667	      4.22381616	     -0.78186402	     -9.36587666	      0.52182729	      0.72602214	      0.38686535	    -10.76641342	      3.37867207	     -5.97124099	    -18.25829726	     28.20933812	      7.71208755	      0.00000000	     21.31534981	     -6.97450397	    -19.73213317	    -14.52657358	      3.86958845	     -5.20873786	      0.00000000	    -13.28187216	     -2.29351458	     13.81363778
      1.51333333	      4.24929292	     -0.78373864	     -9.57593920	      0.53024233	      0.72468503	      0.38668109	    -11.31885825	      3.11356539	     -5.91540535	    -18.63557075	     28.42059502	      7.94845243	      0.00000000	     21.10503559	     -6.69394652	    -20.78221132	    -12.47704058	      4.13817223	     -4.15538417	      0.00000000	    -13.32287482	     -2.36165170	     14.08562977
      1.52000000	      4.30592425	     -0.74179137	     -9.84319759	      0.53880196	      0.72343475	      0.38650562	    -11.83961299	      2.76787837	     -5.77550431	    -19.12187890	     28.58954686	      8.22404590	      0.00000000	     20.87529473	     -6.36134955	    -21.88509547	    -10.72109103	      4.42363126	     -3.14103314	      0.00000000	    -13.37860948	     -2.48559605	     14.44800079
      1.52666667	      4.37672476	     -0.67873184	    -10.17447487	      0.54741043	      0.72222869	      0.38634401	    -12.28650553	      2.35586825	     -5.54697450	    -19.76000359	     28.76309852	      8.65310028	      0.00000000	     20.68832484	     -6.04677790	    -23.12403669	     -9.34894233	      4.80656710	     -2.00051756	      0.00000000	    -13.43827227	     -2.64387322	     14.95291549
      1.53333333	      4.40065639	     -0.60160095	    -10.39250885	      0.55608642	      0.72100326	      0.38606591	    -12.61195740	      1.95732056	     -5.39330772	    -20.53062985	     28.73472264	      8.85199743	      0.00000000	     20.61466713	     -5.66284582	    -23.99731091	     -8.29982580	      5.05311290	     -1.32169105	      0.00000000	    -13.41685657	     -2.79703742	     15.25148095
      1.54000000	      4.40613197	     -0.62003823	    -10.46757059	      0.56471729	      0.71983966	      0.38577602	    -12.89557102	      1.71749284	     -5.28519040	    -21.35564634	     28.46323488	      8.90800358	      0.00000000	     20.62920002	     -5.35572643	    -24.37662156	     -7.62391631	      5.26974507	     -1.09188829	      0.00000000	    -13.41482128	     -2.86408150	     15.36221642
      1.54666667	      4.51641403	     -0.43314305	    -10.72721373	      0.57355344	      0.71890738	      0.38549361	    -13.13723079	      1.14561830	     -5.10245976	    -22.38421131	     28.08816312	      9.07039372	      0.00000000	     20.52000460	     -4.89479254	    -25.14150938	     -7.24007535	      5.38286262	     -0.80171071	      0.00000000	    -13.47145094	     -3.17922189	     15.71705814
      1.55333333	      4.60461600	     -0.27930954	    -11.01167927	      0.58248439	      0.71807604	      0.38532244	    -13.29691456	      0.59689944	     -4.89226621	    -23.51379418	     27.68739478	      9.35482663	      0.00000000	     20.44200646	     -4.51929470	    -25.77521359	     -7.17713031	      5.44086616	     -0.57941788	      0.00000000	    -13.46689605	     -3.47370931	     16.17669811
      1.56000000	      4.68996159	     -0.11447473	    -11.23556609	      0.59147963	      0.71735591	      0.38503663	    -13.38025047	      0.03584550	     -4.73410424	    -24.75319678	     27.08879988	      9.63247561	      0.00000000	     20.41000164	     -4.13888846	    -26.15870709	     -7.42611285	      5.42279090	     -0.51823046	      0.00000000	    -13.45633084	     -3.73821104	     16.57480758
      1.56666667	      4.84249307	     -0.03653339	    -11.19595534	      0.60061513	      0.71681359	      0.38496789	    -13.70196441	     -0.24859646	     -4.42895214	    -25.76932897	     26.59818304	      9.75897922	      0.00000000	     20.36046392	     -3.83642189	    -25.93512940	     -8.00263215	      5.32574314	     -0.49530219	      0.00000000	    -13.52575789	     -4.02917287	     16.70502606
      1.57333333	      4.78810328	      0.32489953	    -11.87609591	      0.60940693	      0.71617541	      0.38493213	    -12.94529630	     -1.28822301	     -4.42977040	    -27.98661532	     25.41873383	     10.43358116	      0.00000000	     20.39409258	     -3.43832438	    -26.37743370	     -8.53965551	      4.78221046	     -1.15095026	      0.00000000	    -13.28134310	     -4.54493816	     17.65279582
      1.58000000	      5.04806418	      0.44033167	    -11.86376902	      0.61870885	      0.71602790	      0.38482114	    -13.21300953	     -1.67058377	     -4.14571842	    -29.21343958	     24.55296651	     10.57659953	      0.00000000	     20.22806330	     -3.11901200	    -25.83101527	     -9.49755913	      4.59094531	     -1.15862269	      0.00000000	    -13.43236644	     -4.88710093	     17.74839924
      1.58666667	      5.10981386	      0.64710894	    -11.98537628	      0.62789823	      0.71582250	      0.38447605	    -12.71942522	     -2.40474913	     -4.56456974	    -31.21808115	     22.19897071	     10.78999573	      0.00000000	     20.24542911	     -2.76379782	    -25.38713984	    -10.46424505	      4.06052108	     -1.73333279	      0.00000000	    -13.33998498	     -5.20336326	     18.05640183
      1.59333333	      5.40545070	      0.82475099	    -12.06723004	      0.63704049	      0.71595607	      0.38445095	    -12.68638345	     -2.90849813	     -4.25824852	    -32.85419226	     20.88808198	     10.93806700	      0.00000000	     20.05045174	     -2.43236370	    -24.45309363	    -11.67242506	      3.66761218	     -1.86509850	      0.00000000	    -13.55291715	     -5.65061783	     18.21413007
      1.60000000	      4.89318621	      1.12698013	    -12.19242181	      0.64551757	      0.71532471	      0.38378944	    -11.00035733	     -3.67326216	     -4.60171263	    -35.57205091	     18.01859465	     10.82185760	      0.00000000	     20.64960544	     -1.92684557	    -22.75530887	    -12.49784747	      1.80622399	     -5.15130670	      0.00000000	    -12.85477281	     -5.88739788	     18.65673632
      1.60666667	      5.07729886	      1.36988618	    -12.17095795	      0.65489405	      0.71565395	      0.38333415	    -10.50851888	     -4.40529094	     -4.86305653	    -37.57135014	     15.20962392	     10.91651036	      0.00000000	     20.47460751	     -1.44599795	    -21.50337098	    -13.58041684	      1.27253451	     -5.69567984	      0.00000000	    -12.87118183	     -6.26176270	     18.78578206
      1.61333333	      4.91373887	      1.57497959	    -12.05813235	      0.66354713	      0.71566075	      0.38270867	     -9.35381312	     -4.91789722	     -4.94084532	    -39.90974727	     12.18427870	     10.21176109	      0.00000000	     20.70846377	     -0.93643235	    -19.38715388	    -14.59109403	     -0.16157153	     -8.27490470	      0.00000000	    -12.62589368	     -6.50136870	     18.76941215
      1.62000000	      5.04227367	      1.85829096	    -12.02969862	      0.67280648	      0.71609356	      0.38211589	     -8.51615974	     -5.72277311	     -5.19145008	    -42.13568581	      8.87444605	     10.12777743	      0.00000000	     20.55885012	     -0.40407958	    -17.99604151	    -15.65882735	     -0.51842360	     -8.81239973	      0.00000000	    -12.58553656	     -6.87745840	     18.88197247
      1.62666667	      4.85424962	      2.06187047	    -11.88469970	      0.68143693	      0.71627612	      0.38141932	     -7.13719351	     -6.19282435	     -5.18280579	    -44.53855618	      5.20216809	      8.80598957	      0.00000000	     20.76829940	      0.11192569	    -15.90907671	    -16.65889216	     -1.72140052	    -11.23997673	      0.00000000	    -12.31552653	     -7.08458153	     18.81667788
      1.63333333	      4.86947726	      2.31343653	    -11.77717111	      0.69039626	      0.71677121	      0.38069423	     -5.95832144	     -6.84226780	     -5.26441608	    -46.83946456	      1.48965212	      7.89199535	      0.00000000	     20.64383207	      0.69891618	    -14.17304050	    -17.54199205	     -2.43745200	    -12.97312678	      0.00000000	    -12.21159866	     -7.36764426	     18.79756319
      1.64000000	      4.89418004	      2.59766756	    -11.71105708	      0.69939609	      0.71730139	      0.37995105	     -4.66455483	     -7.57116414	     -5.31396056	    -49.19916386	     -2.14989805	      7.13300847	      0.00000000	     20.49988758	      1.25492409	    -12.89833421	    -18.45368853	     -2.58649476	    -13.79366589	      0.00000000	    -12.09535033	     -7.67174377	     18.78941097
      1.64666667	      4.80808175	      2.76267125	    -11.61237495	      0.70811518	      0.71785112	      0.37946819	     -3.22534423	     -7.92137086	     -5.07965492	    -51.44878802	     -5.93517933	      5.27370171	      0.00000000	     20.41193687	      1.69778261	    -11.43485926	    -19.27209068	     -3.13112537	    -15.61423614	      0.00000000	    -11.91760567	     -7.87409359	     18.75915319
      1.65333333	      4.80538043	      2.95691856	    -11.51348049	      0.71697495	      0.71852509	      0.37890371	     -1.82309123	     -8.36187355	     -4.88809637	    -53.66302606	     -9.37600018	      3.82093087	      0.00000000	     20.15546322	      2.17598309	    -10.33993811	    -19.98517638	     -3.28451455	    -16.91540882	      0.00000000	    -11.80271535	     -8.09111005	     18.71190134
      1.66000000	      4.91359838	      3.17722558	    -11.41280956	      0.72600821	      0.71936091	      0.37837826	     -0.52712748	     -8.87699168	     -4.70070313	    -55.81469516	    -12.06348491	      3.30616098	      0.00000000	     19.69011852	      2.67088440	     -9.64195125	    -20.58243234	     -2.71986925	    -17.37495340	      0.00000000	    -11.78479220	     -8.37248695	     18.58972919
